<?xml version="1.0" standalone="no"?>
<!DOCTYPE svg PUBLIC "-//W3C//DTD SVG 20010904//EN"
 "http://www.w3.org/TR/2001/REC-SVG-20010904/DTD/svg10.dtd">
<svg version="1.0" xmlns="http://www.w3.org/2000/svg"
 width="50.000000pt" height="50.000000pt" viewBox="0 0 50.000000 50.000000"
 preserveAspectRatio="xMidYMid meet">

<g transform="translate(0.000000,50.000000) scale(0.100000,-0.100000)"
fill="#000000" stroke="none">
<path d="M120 454 c0 -3 9 -17 20 -31 28 -36 25 -62 -12 -112 -47 -65 -49
-119 -6 -201 l34 -65 93 0 94 0 30 55 c45 78 45 148 0 210 -38 51 -41 77 -13
113 11 14 20 28 20 31 0 3 -58 6 -130 6 -72 0 -130 -3 -130 -6z m215 -31 c-19
-45 -15 -69 20 -123 31 -47 36 -61 32 -97 -2 -23 -16 -64 -30 -90 l-25 -48
-80 -3 -81 -3 -27 47 c-15 26 -29 66 -31 93 -4 40 0 53 32 101 35 54 39 78 20
123 -6 15 1 17 85 17 84 0 91 -2 85 -17z"/>
</g>
</svg>
