<?xml version="1.0" standalone="no"?>
<!DOCTYPE svg PUBLIC "-//W3C//DTD SVG 20010904//EN"
 "http://www.w3.org/TR/2001/REC-SVG-20010904/DTD/svg10.dtd">
<svg version="1.0" xmlns="http://www.w3.org/2000/svg"
 width="100.000000pt" height="100.000000pt" viewBox="0 0 100.000000 100.000000"
 preserveAspectRatio="xMidYMid meet">

<g transform="translate(0.000000,100.000000) scale(0.100000,-0.100000)"
fill="#000000" stroke="none">
<path d="M245 910 c-3 -5 10 -29 29 -54 60 -79 59 -135 -4 -215 -80 -102 -103
-184 -80 -294 14 -67 66 -176 110 -229 l31 -38 169 0 168 0 35 47 c79 109 124
245 112 337 -6 49 -45 139 -66 151 -22 14 -69 100 -69 127 0 39 26 97 57 130
14 14 22 31 19 37 -9 14 -502 15 -511 1z m419 -77 c-38 -74 -28 -143 32 -214
62 -74 79 -116 78 -194 -1 -82 -26 -154 -84 -244 l-40 -62 -152 3 -153 3 -42
63 c-47 70 -83 172 -83 234 0 64 18 109 75 186 72 98 81 161 33 240 l-20 32
190 0 189 0 -23 -47z"/>
</g>
</svg>
