<?xml version="1.0" standalone="no"?>
<!DOCTYPE svg PUBLIC "-//W3C//DTD SVG 20010904//EN"
 "http://www.w3.org/TR/2001/REC-SVG-20010904/DTD/svg10.dtd">
<svg version="1.0" xmlns="http://www.w3.org/2000/svg"
 width="64.000000pt" height="122.000000pt" viewBox="0 0 64.000000 122.000000"
 preserveAspectRatio="xMidYMid meet">

<g transform="translate(0.000000,122.000000) scale(0.100000,-0.100000)"
fill="#000000" stroke="none">
<path d="M116 1204 c-9 -8 -16 -32 -16 -53 0 -29 7 -44 29 -64 35 -31 56 -111
40 -154 -5 -15 -35 -56 -65 -91 -85 -100 -99 -132 -99 -232 1 -116 88 -559
117 -589 18 -21 27 -21 205 -19 185 3 186 3 204 28 29 38 109 467 109 578 0
105 -15 143 -89 227 -79 90 -86 106 -71 175 9 44 19 63 41 79 23 17 29 29 29
60 0 68 -10 71 -228 71 -160 0 -193 -3 -206 -16z m394 -54 c0 -27 -3 -30 -31
-30 -29 0 -31 -2 -26 -27 3 -16 -1 -51 -8 -79 -7 -27 -11 -62 -8 -77 3 -14 35
-61 70 -104 91 -108 106 -146 99 -242 -3 -42 -10 -101 -15 -131 -44 -247 -80
-403 -97 -420 -12 -12 -46 -15 -174 -15 -102 0 -163 4 -170 11 -18 18 -110
500 -110 576 0 83 15 115 99 216 68 82 77 104 66 170 -5 26 -8 64 -7 85 1 35
0 37 -28 37 -27 0 -30 3 -30 30 l0 30 185 0 185 0 0 -30z"/>
</g>
</svg>
